<?xml version="1.0" encoding="utf-8"?>

<!DOCTYPE svg PUBLIC "-//W3C//DTD SVG 1.1//EN" "http://www.w3.org/Graphics/SVG/1.1/DTD/svg11.dtd">
<svg version="1.1" xmlns="http://www.w3.org/2000/svg" xmlns:xlink="http://www.w3.org/1999/xlink" x="0px" y="0px" viewBox="0 0 512 512" enable-background="new 0 0 512 512" xml:space="preserve"> <path id="video-multi-icon" d="M115.672,123.642v328.937H462V123.642H115.672z M189.148,418.287h-37.874v-32.572h37.874V418.287z M189.148,361.475h-37.874v-32.57h37.874V361.475z M189.148,304.393h-37.874v-32.568h37.874V304.393z M189.148,247.854h-37.874 v-32.572h37.874V247.854z M189.148,191.042h-37.874v-32.571h37.874V191.042z M357.468,418.287H223.236V304.666h134.231V418.287z M357.468,272.096H223.236V158.472h134.231V272.096z M429.43,418.287h-37.873v-32.572h37.873V418.287z M429.43,361.475h-37.873 v-32.57h37.873V361.475z M429.43,304.393h-37.873v-32.568h37.873V304.393z M429.43,247.854h-37.873v-32.572h37.873V247.854z M429.43,191.042h-37.873v-32.571h37.873V191.042z M83.629,93.052h307.928v-33.63H50v336.293h33.629V93.052z"/>
</svg>
